<?xml version="1.0" standalone="no"?>
<!DOCTYPE svg PUBLIC "-//W3C//DTD SVG 20010904//EN"
 "http://www.w3.org/TR/2001/REC-SVG-20010904/DTD/svg10.dtd">
<svg version="1.0" xmlns="http://www.w3.org/2000/svg"
 width="900.000000pt" height="900.000000pt" viewBox="0 0 900.000000 900.000000"
 preserveAspectRatio="xMidYMid meet">
<metadata>
Created by potrace 1.10, written by Peter Selinger 2001-2011
</metadata>
<g transform="translate(0.000000,900.000000) scale(0.100000,-0.100000)"
fill="#000000" stroke="none">
<path d="M590 7290 c0 -18 13 -54 48 -130 36 -76 163 -216 222 -243 8 -4 29
-16 45 -27 17 -11 37 -22 45 -26 8 -3 22 -10 30 -15 8 -5 20 -11 25 -13 6 -2
17 -7 25 -10 8 -3 22 -10 30 -14 8 -5 33 -17 55 -26 22 -10 53 -24 68 -32 16
-8 35 -14 42 -14 13 0 28 -6 103 -44 19 -9 42 -16 52 -16 9 0 23 -6 30 -14 6
-8 25 -16 42 -18 18 -2 33 -9 36 -15 6 -19 -63 -17 -78 2 -7 8 -26 15 -42 15
-16 0 -39 5 -51 12 -12 6 -35 15 -52 19 -43 10 -96 29 -127 45 -14 8 -35 14
-45 14 -11 0 -28 7 -39 15 -10 8 -28 15 -40 15 -11 0 -29 7 -40 15 -10 8 -29
15 -40 15 -12 0 -27 7 -34 15 -7 8 -22 15 -34 15 -12 0 -31 7 -42 15 -10 8
-28 15 -39 15 -11 0 -29 7 -39 15 -11 8 -27 15 -37 15 -9 0 -22 7 -29 15 -14
17 -50 20 -50 5 0 -6 4 -18 9 -28 4 -9 16 -35 27 -57 19 -42 93 -145 128 -181
61 -61 192 -146 311 -202 39 -18 83 -40 98 -48 16 -8 35 -14 42 -14 14 0 66
-20 118 -46 16 -8 38 -14 50 -14 12 0 31 -7 41 -15 11 -8 32 -15 46 -15 14 0
35 -7 46 -15 10 -8 33 -15 50 -15 17 0 37 -6 44 -14 6 -8 27 -16 46 -18 19 -2
35 -7 36 -13 3 -17 -30 -17 -64 -1 -17 9 -47 16 -67 16 -20 1 -47 7 -61 15
-14 8 -38 15 -55 15 -16 0 -41 7 -55 15 -14 8 -39 14 -56 15 -16 0 -39 7 -50
15 -10 8 -33 15 -50 15 -16 0 -35 5 -41 11 -6 6 -29 15 -50 19 -53 11 -133 40
-206 76 -38 18 -47 18 -47 -4 0 -20 22 -65 64 -132 32 -49 160 -180 177 -180
6 0 25 -11 42 -24 37 -27 177 -96 196 -96 7 0 25 -6 39 -14 37 -19 91 -37 127
-44 17 -2 39 -11 50 -18 11 -8 33 -14 50 -14 16 -1 41 -7 55 -15 14 -8 44 -14
66 -15 24 0 47 -6 54 -15 7 -9 29 -15 54 -15 48 0 77 -14 51 -24 -31 -11 -92
-6 -105 9 -8 10 -31 15 -67 15 -29 0 -70 7 -90 15 -19 8 -49 15 -65 15 -16 0
-45 7 -65 15 -19 8 -46 15 -59 15 -13 0 -38 6 -56 14 -54 22 -101 38 -140 46
-21 4 -44 13 -52 19 -20 16 -32 -5 -15 -26 7 -8 18 -24 24 -34 45 -81 132
-177 204 -223 68 -45 84 -55 101 -62 8 -3 29 -12 45 -19 17 -7 46 -19 65 -28
19 -8 46 -18 60 -20 14 -3 39 -10 55 -15 57 -20 130 -35 195 -42 72 -7 153
-42 113 -48 -12 -2 -31 2 -42 7 -11 6 -62 11 -114 11 -54 0 -114 6 -143 15
-27 8 -66 15 -87 15 -21 0 -54 7 -74 15 -42 18 -93 20 -93 4 0 -48 141 -211
215 -248 25 -12 47 -26 50 -32 4 -5 16 -9 28 -9 12 0 31 -7 41 -15 11 -8 34
-15 50 -15 17 0 44 -7 60 -15 19 -10 58 -15 120 -15 86 0 186 -22 186 -41 0
-15 -112 -21 -304 -18 -181 4 -196 3 -196 -13 0 -10 4 -18 9 -18 5 0 19 -16
32 -35 24 -35 119 -115 137 -115 5 0 15 -7 22 -15 7 -8 23 -15 37 -15 13 0 38
-8 56 -17 27 -15 63 -17 230 -18 117 0 198 -5 200 -10 1 -6 -16 -11 -37 -13
-22 -2 -49 -10 -60 -18 -11 -8 -41 -14 -67 -14 -25 0 -68 -7 -95 -15 -27 -8
-88 -15 -136 -15 -77 0 -88 -2 -88 -17 1 -25 35 -63 104 -114 66 -49 100 -64
201 -86 76 -17 131 -18 185 -3 19 6 54 10 77 10 23 0 45 5 48 10 3 6 13 10 22
10 11 0 9 -6 -8 -25 -14 -14 -35 -25 -50 -25 -15 0 -32 -7 -39 -15 -7 -8 -24
-15 -39 -15 -14 -1 -37 -7 -51 -15 -14 -8 -39 -14 -56 -15 -17 0 -50 -7 -73
-15 -23 -8 -45 -14 -49 -14 -45 7 -41 -13 15 -66 75 -72 173 -109 293 -108 77
0 194 23 213 42 13 13 57 15 57 2 0 -8 -23 -24 -125 -89 -11 -6 -27 -15 -35
-18 -8 -3 -30 -12 -48 -20 -18 -8 -53 -14 -77 -14 -47 0 -56 -11 -32 -40 21
-26 94 -80 109 -80 7 0 24 -7 36 -16 32 -22 211 -23 244 0 12 9 30 16 39 16 9
0 22 7 29 15 12 14 60 21 60 9 0 -24 -127 -122 -213 -163 -47 -23 -48 -24 -30
-43 10 -11 27 -24 38 -29 11 -5 27 -13 35 -18 30 -19 155 -34 178 -22 11 6 32
11 45 11 14 0 30 7 37 15 7 8 20 15 29 15 10 0 32 14 49 31 18 18 35 29 38 26
9 -9 -5 -43 -29 -69 -12 -13 -37 -44 -56 -68 -19 -25 -48 -59 -64 -77 -16 -17
-27 -36 -23 -41 3 -5 26 -12 52 -16 26 -3 53 -11 60 -17 30 -24 188 42 261
110 28 26 53 28 30 3 -10 -10 -17 -24 -17 -31 0 -7 -13 -30 -30 -51 -16 -21
-30 -42 -30 -47 0 -5 -14 -24 -32 -42 -25 -26 -30 -36 -21 -49 16 -26 175 -29
223 -5 69 35 70 36 70 254 0 162 3 199 15 209 8 7 15 20 15 30 0 10 7 34 15
53 8 20 15 51 15 69 0 18 7 42 15 52 8 11 15 33 15 49 0 15 5 38 12 50 6 12
15 38 19 57 22 99 48 181 75 232 22 41 17 54 -29 81 -82 49 -226 206 -253 277
-3 8 -10 22 -15 30 -5 8 -12 22 -15 30 -3 8 -11 29 -19 45 -7 17 -16 41 -19
55 -2 14 -9 43 -15 65 -19 78 -34 161 -40 230 -4 39 -12 80 -19 92 -6 12 -12
37 -12 55 0 18 -7 42 -15 52 -8 11 -15 30 -15 42 0 12 -6 35 -14 51 -8 15 -31
62 -51 103 -52 103 -58 114 -72 123 -7 4 -13 13 -13 19 0 36 -252 293 -358
364 -104 70 -124 82 -147 94 -11 6 -33 19 -50 30 -16 11 -37 22 -45 26 -8 3
-22 9 -30 14 -28 17 -122 60 -207 96 -21 9 -51 23 -66 30 -16 8 -36 14 -45 14
-9 0 -26 7 -36 15 -11 8 -29 15 -41 15 -12 0 -30 7 -41 15 -10 8 -28 15 -40
15 -11 0 -29 7 -40 15 -10 8 -31 15 -45 15 -15 0 -32 7 -39 15 -7 8 -22 15
-34 15 -12 0 -30 6 -41 14 -11 7 -31 16 -45 19 -34 7 -89 27 -122 43 -14 8
-35 14 -46 14 -11 0 -25 7 -32 15 -7 8 -24 15 -39 15 -14 0 -35 7 -45 15 -11
8 -28 15 -37 15 -10 0 -31 7 -48 15 -17 8 -45 22 -62 30 -17 8 -39 15 -49 15
-9 0 -23 7 -30 15 -7 8 -22 15 -34 15 -12 0 -31 7 -42 15 -10 8 -29 15 -40 15
-12 0 -27 7 -34 15 -7 8 -22 15 -34 15 -11 0 -30 7 -40 15 -11 8 -27 15 -37
15 -9 0 -22 7 -29 15 -7 8 -23 15 -35 15 -12 0 -28 7 -35 15 -7 8 -23 15 -35
15 -12 0 -28 7 -35 15 -7 8 -18 15 -25 15 -14 0 -187 87 -240 121 -16 10 -40
23 -52 28 -11 5 -24 15 -28 20 -11 18 -35 12 -35 -9z"/>
<path d="M8355 7284 c-22 -14 -49 -29 -60 -35 -20 -9 -33 -16 -70 -37 -11 -7
-30 -16 -42 -21 -11 -6 -24 -15 -28 -20 -3 -6 -14 -11 -24 -11 -10 0 -24 -7
-31 -15 -7 -8 -23 -15 -35 -15 -12 0 -28 -7 -35 -15 -7 -8 -18 -15 -25 -15 -8
0 -26 -7 -42 -14 -15 -8 -35 -17 -43 -20 -8 -3 -22 -10 -30 -14 -44 -25 -83
-42 -95 -42 -7 0 -28 -8 -47 -17 -18 -9 -45 -22 -60 -30 -14 -7 -33 -13 -41
-13 -15 0 -29 -6 -105 -44 -19 -9 -41 -16 -51 -16 -9 0 -26 -7 -37 -15 -10 -8
-28 -15 -40 -15 -11 0 -29 -7 -40 -15 -10 -8 -28 -15 -40 -15 -11 0 -29 -7
-40 -15 -10 -8 -28 -15 -39 -15 -11 0 -29 -7 -39 -15 -11 -8 -29 -15 -41 -15
-12 0 -30 -7 -41 -15 -10 -8 -28 -15 -39 -15 -11 0 -29 -7 -39 -15 -11 -8 -29
-15 -41 -15 -11 0 -29 -6 -40 -14 -11 -7 -31 -16 -45 -19 -14 -3 -50 -15 -80
-27 -30 -12 -66 -24 -80 -27 -14 -3 -34 -12 -45 -19 -11 -8 -27 -14 -36 -14
-10 0 -30 -6 -46 -14 -15 -8 -48 -22 -73 -32 -44 -17 -226 -104 -265 -127 -11
-7 -39 -24 -63 -39 -24 -16 -45 -28 -46 -28 -8 0 -113 -73 -151 -105 -22 -18
-65 -53 -94 -77 -50 -40 -97 -90 -191 -207 -19 -24 -38 -51 -43 -60 -4 -9 -16
-29 -27 -46 -11 -16 -24 -40 -29 -52 -5 -11 -15 -24 -20 -28 -6 -3 -11 -14
-11 -24 0 -10 -6 -24 -14 -30 -8 -6 -16 -24 -19 -39 -5 -29 -21 -76 -43 -130
-8 -18 -14 -47 -14 -65 0 -18 -7 -54 -15 -81 -8 -27 -15 -67 -15 -89 0 -41
-23 -160 -42 -212 -5 -16 -12 -41 -15 -55 -4 -22 -46 -111 -92 -198 -16 -31
-164 -180 -201 -203 -27 -18 -28 -14 25 -108 14 -24 25 -56 25 -70 1 -14 7
-37 15 -51 8 -14 15 -45 15 -70 0 -25 7 -56 15 -70 8 -14 14 -44 15 -67 0 -23
4 -44 9 -47 15 -9 51 -90 51 -113 0 -12 7 -35 15 -52 8 -17 22 -45 30 -62 8
-17 15 -37 15 -44 0 -7 6 -26 14 -42 31 -63 46 -105 46 -131 0 -16 7 -37 15
-48 8 -10 15 -31 15 -45 0 -14 7 -49 15 -77 l16 -52 54 0 c30 0 57 5 60 10 4
6 -19 50 -52 98 -61 90 -87 141 -78 151 4 3 9 1 13 -5 10 -14 89 -74 98 -74 4
0 15 -7 25 -15 21 -19 136 -30 199 -18 49 9 62 30 35 57 -9 8 -47 57 -86 108
-45 60 -66 95 -60 101 7 7 21 -1 42 -21 18 -18 39 -32 48 -32 8 0 23 -8 33
-17 27 -25 219 -24 246 0 10 10 25 17 34 17 20 0 52 36 43 49 -3 6 -13 11 -21
11 -34 0 -256 191 -241 206 4 5 20 1 35 -8 25 -15 43 -24 123 -63 42 -20 196
-20 223 0 11 8 26 15 34 15 8 0 31 14 52 30 21 17 43 30 48 30 6 0 14 10 17
21 8 25 -8 39 -43 39 -13 0 -36 6 -50 14 -15 7 -47 23 -72 35 -54 26 -74 38
-120 72 -19 14 -44 29 -54 33 -15 5 -16 10 -8 18 9 9 16 7 30 -5 10 -9 27 -17
38 -17 10 0 28 -7 38 -15 11 -8 33 -15 48 -15 16 0 45 -7 65 -15 46 -19 142
-19 179 0 16 8 39 15 51 15 12 0 25 5 28 11 4 5 17 14 28 19 36 14 138 100
132 110 -4 6 -17 10 -31 10 -14 0 -41 7 -61 15 -19 8 -50 15 -67 15 -18 0 -41
7 -52 15 -10 8 -28 15 -39 15 -11 0 -29 7 -39 15 -11 8 -30 15 -42 15 -12 0
-27 7 -34 15 -7 8 -21 15 -31 15 -24 0 -34 19 -15 26 9 3 27 -1 41 -10 13 -9
39 -16 57 -16 18 0 48 -4 66 -10 95 -27 234 -1 351 65 35 19 151 137 145 147
-3 4 -51 8 -107 8 -56 0 -120 5 -142 11 -22 6 -65 14 -96 18 -31 3 -63 12 -70
18 -8 6 -32 13 -54 15 -22 2 -39 8 -37 13 1 6 61 9 160 7 279 -6 388 28 510
156 87 92 88 92 -160 92 -229 0 -288 5 -288 25 0 16 49 25 180 31 58 2 125 11
149 19 25 8 52 15 62 15 10 0 30 6 46 14 15 7 46 22 68 32 64 30 148 98 193
158 23 30 42 59 42 64 0 5 7 15 15 22 26 22 19 43 -12 37 -209 -43 -246 -49
-373 -57 -69 -4 -140 -11 -157 -15 -46 -10 -41 1 11 25 28 12 66 20 101 20 31
0 72 7 92 15 19 8 49 15 65 15 16 0 39 5 51 12 12 6 38 15 57 19 49 10 108 33
122 47 7 7 20 12 29 12 9 0 22 7 29 15 7 8 20 15 29 15 15 0 30 12 122 95 42
38 112 121 121 145 4 10 11 21 17 25 6 3 11 13 11 21 0 19 -49 18 -74 -1 -11
-8 -31 -15 -45 -15 -14 -1 -37 -7 -51 -15 -14 -8 -38 -14 -55 -15 -16 0 -50
-6 -75 -14 -64 -21 -146 -37 -210 -42 -30 -3 -65 -10 -77 -16 -29 -14 -96 -16
-103 -3 -3 6 12 11 34 13 22 2 49 10 60 18 11 8 36 14 56 14 19 1 46 7 60 15
14 8 40 14 58 15 18 0 43 5 55 12 12 6 38 15 57 19 47 10 99 28 203 73 17 8
39 17 47 20 8 3 29 15 45 26 17 11 39 24 50 29 64 31 195 162 239 240 51 92
57 104 47 114 -7 7 -16 5 -29 -6 -10 -9 -27 -17 -38 -17 -10 0 -28 -7 -38 -15
-11 -8 -32 -15 -46 -15 -14 0 -31 -5 -37 -11 -6 -6 -26 -14 -44 -19 -39 -10
-90 -27 -137 -46 -18 -8 -45 -14 -60 -14 -15 -1 -38 -7 -52 -15 -14 -8 -38
-15 -55 -15 -16 0 -41 -7 -55 -15 -32 -18 -113 -20 -108 -2 3 6 23 15 47 18
23 3 47 11 53 17 7 7 24 12 38 12 14 0 35 7 46 15 10 8 31 15 45 15 14 0 34 7
45 15 10 8 27 15 36 15 9 0 29 6 45 14 15 8 44 21 63 29 78 32 177 82 218 109
24 15 46 28 50 28 4 0 20 12 37 27 16 15 49 45 74 66 50 44 108 114 137 167
10 19 24 42 30 50 15 19 27 70 17 70 -17 0 -84 -27 -95 -38 -7 -7 -22 -12 -34
-12 -12 0 -27 -7 -34 -15 -7 -8 -21 -15 -31 -15 -18 0 -69 -19 -121 -46 -14
-8 -37 -14 -50 -14 -12 0 -32 -7 -42 -15 -11 -8 -29 -15 -41 -15 -12 0 -30 -7
-41 -15 -10 -8 -31 -15 -45 -15 -14 0 -34 -7 -45 -15 -10 -8 -30 -15 -44 -15
-14 0 -36 -7 -50 -15 -14 -8 -39 -14 -56 -15 -17 0 -37 -7 -44 -15 -13 -16
-80 -21 -80 -6 0 11 25 21 56 21 13 0 24 4 24 10 0 5 18 14 40 20 21 6 42 15
45 20 3 6 16 10 28 10 12 0 31 7 41 15 11 8 30 15 42 15 12 0 27 7 34 15 7 8
19 15 27 15 8 0 27 6 41 14 15 8 69 35 121 60 51 26 126 71 166 102 99 74 215
230 215 289 0 11 7 30 15 41 13 19 11 35 -4 34 -3 0 -24 -12 -46 -26z m-985
-1063 c0 -10 -70 -22 -82 -15 -4 3 -6 9 -3 14 6 10 85 11 85 1z"/>
<path d="M4135 7198 c-71 -5 -159 -15 -195 -23 -36 -8 -81 -15 -101 -15 -20 0
-53 -7 -72 -15 -20 -8 -49 -15 -65 -15 -15 0 -37 -7 -48 -15 -10 -8 -26 -15
-34 -15 -9 0 -32 -8 -52 -18 -88 -46 -127 -101 -108 -157 12 -35 76 -95 103
-95 8 0 20 -6 26 -14 6 -8 24 -16 39 -19 15 -2 41 -9 57 -15 40 -14 124 -31
208 -42 38 -5 94 -15 125 -21 41 -9 180 -13 482 -13 368 0 433 2 488 17 35 9
85 17 112 17 26 0 64 7 83 15 20 8 51 15 69 15 18 0 42 7 52 15 11 8 32 15 47
15 14 0 32 7 39 15 7 8 19 15 27 15 27 0 91 60 103 95 8 26 8 39 -1 56 -17 32
-81 89 -100 89 -9 0 -22 7 -29 15 -7 8 -25 15 -39 15 -15 0 -36 7 -47 15 -10
8 -35 15 -54 15 -19 0 -46 7 -60 15 -14 8 -48 14 -77 15 -28 0 -64 5 -80 11
-68 28 -652 45 -898 27z m629 -108 c14 -5 78 -12 143 -16 65 -3 140 -12 167
-20 27 -8 66 -14 85 -14 20 -1 47 -7 61 -15 14 -8 38 -14 53 -15 16 0 41 -6
55 -14 15 -8 35 -17 45 -20 26 -8 19 -50 -10 -54 -12 -2 -27 -10 -33 -18 -7
-8 -24 -14 -39 -14 -14 -1 -37 -7 -51 -15 -14 -8 -39 -14 -57 -15 -17 0 -44
-5 -60 -11 -15 -7 -68 -15 -118 -20 -49 -4 -112 -13 -140 -18 -64 -13 -672
-13 -745 0 -30 5 -96 13 -145 17 -50 4 -96 12 -103 16 -7 4 -37 11 -65 16 -55
8 -104 23 -150 46 -16 8 -35 14 -42 14 -12 0 -35 29 -35 43 0 9 86 47 104 47
10 0 39 6 65 14 80 25 152 37 284 46 70 5 142 14 160 19 43 12 539 14 571 1z"/>
<path d="M4470 5620 c-99 -24 -115 -31 -151 -66 -22 -21 -39 -43 -39 -50 0 -7
-20 -33 -45 -58 -48 -49 -57 -87 -33 -126 10 -15 10 -26 0 -53 -16 -43 -15
-92 1 -105 7 -6 33 -12 57 -14 l45 -3 3 -53 c2 -36 8 -55 18 -59 18 -7 44 -55
44 -81 0 -11 -9 -40 -20 -65 -19 -44 -22 -45 -54 -40 -23 3 -42 0 -57 -11 -13
-9 -33 -16 -46 -16 -12 0 -25 -4 -28 -10 -9 -15 -45 -12 -51 4 -3 8 4 28 16
44 12 16 22 45 23 63 2 31 0 34 -23 31 -77 -9 -85 -8 -88 18 -2 14 -14 36 -27
50 -12 14 -39 61 -60 105 -20 44 -48 100 -61 125 -12 25 -33 66 -45 93 -23 50
-42 59 -59 28 -8 -15 -6 -28 10 -53 11 -18 22 -40 26 -48 3 -8 10 -22 15 -30
5 -8 31 -62 59 -120 28 -58 57 -118 65 -133 8 -16 15 -35 15 -42 0 -7 6 -26
14 -42 28 -56 46 -104 46 -121 0 -10 5 -23 12 -30 8 -8 -2 -24 -45 -62 -68
-63 -128 -180 -147 -288 -4 -24 -12 -48 -18 -54 -7 -7 -12 -26 -12 -43 0 -17
-7 -40 -15 -51 -8 -10 -15 -35 -15 -54 0 -19 -7 -46 -15 -60 -8 -14 -14 -41
-15 -61 0 -19 -7 -44 -15 -55 -8 -10 -15 -29 -15 -40 0 -12 -7 -27 -15 -34
-13 -11 -15 -59 -15 -324 1 -187 5 -329 12 -356 6 -25 13 -99 17 -165 7 -130
12 -146 71 -202 32 -31 40 -33 90 -31 l55 3 0 57 c0 54 16 81 24 41 1 -10 10
-25 18 -35 9 -10 13 -31 11 -54 -3 -34 -7 -40 -33 -44 -19 -3 -40 -19 -62 -48
l-32 -43 5 -112 c7 -147 30 -266 56 -294 11 -12 36 -29 55 -38 34 -17 35 -18
28 -63 -3 -26 -8 -76 -10 -112 -10 -211 -24 -297 -52 -331 -7 -8 -13 -22 -13
-30 0 -9 -7 -24 -15 -35 -18 -23 -21 -244 -4 -276 6 -11 26 -26 45 -34 l34
-14 0 -126 c0 -86 -4 -134 -13 -152 -8 -15 -22 -45 -33 -67 -19 -41 -81 -115
-96 -115 -18 0 -68 -44 -68 -60 0 -9 -5 -21 -11 -27 -5 -5 -9 -34 -7 -64 l3
-54 45 -8 c25 -4 87 -6 137 -3 91 4 93 5 126 41 23 25 48 40 87 50 29 8 57 20
61 27 15 22 10 232 -6 295 -12 48 -13 72 -4 133 6 41 13 92 16 112 4 29 13 42
44 63 41 27 55 50 65 113 9 50 5 138 -7 168 -14 38 -11 100 6 114 8 7 15 20
15 29 0 9 6 25 14 36 7 11 16 62 20 115 7 104 22 166 54 220 56 93 63 119 61
227 -1 75 3 109 13 126 8 12 18 46 21 76 10 86 57 135 57 59 0 -16 6 -42 14
-56 41 -80 40 -75 20 -174 -6 -26 23 -118 37 -118 21 0 44 -62 50 -135 8 -89
23 -155 47 -200 13 -25 17 -73 20 -280 1 -142 7 -262 13 -277 6 -14 28 -38 49
-53 50 -35 53 -58 48 -359 -1 -129 0 -237 3 -240 11 -11 113 -38 156 -41 32
-2 48 -10 71 -36 l30 -34 128 2 c157 3 167 9 158 92 -5 47 -12 61 -40 89 -18
17 -43 32 -55 32 -49 0 -179 146 -179 202 0 13 -7 31 -14 41 -9 12 -13 46 -11
116 2 105 7 121 33 121 9 0 26 13 37 28 17 23 20 40 18 123 -2 58 -9 110 -18
132 -8 20 -15 49 -15 63 0 15 -7 36 -16 46 -14 14 -18 51 -25 185 -4 93 -12
186 -18 208 -14 53 -4 166 17 183 9 6 26 12 39 12 29 0 54 47 54 103 0 23 3
110 8 192 5 83 6 170 4 195 -7 60 -41 89 -104 90 -40 0 -47 3 -58 28 -7 15
-15 61 -18 102 -3 41 -12 93 -20 116 -8 22 -13 58 -11 79 3 35 6 40 34 46 37
7 62 -5 98 -47 24 -29 25 -37 20 -93 -6 -55 -4 -65 21 -103 58 -87 115 -117
164 -86 15 9 23 9 35 -1 9 -8 16 -19 16 -26 0 -8 3 -15 8 -17 11 -5 52 -66 52
-77 0 -5 -27 -33 -60 -61 -59 -52 -59 -53 -42 -76 19 -26 51 -30 90 -11 15 8
42 21 60 30 19 9 39 17 46 17 17 0 56 -43 56 -62 0 -9 7 -21 15 -28 8 -7 15
-23 15 -37 0 -13 7 -26 15 -29 9 -4 15 -19 15 -39 0 -19 4 -36 9 -39 4 -3 21
-31 37 -61 22 -44 32 -55 48 -53 47 7 22 83 -51 155 -29 28 -43 50 -43 68 0
14 -7 28 -15 31 -8 4 -15 16 -15 29 0 12 -7 28 -15 35 -14 12 -12 17 15 41 33
30 39 69 15 89 -8 7 -15 18 -15 25 0 7 -7 18 -15 25 -8 7 -15 23 -15 35 0 13
-7 25 -15 29 -8 3 -15 16 -15 29 0 14 -7 30 -15 37 -8 7 -15 20 -15 29 0 9 -7
25 -15 35 -8 11 -15 30 -15 42 0 12 -7 27 -15 34 -8 7 -15 20 -15 29 0 9 -9
29 -19 44 -10 16 -17 37 -14 47 3 10 -2 31 -11 48 -9 17 -16 46 -16 64 0 18
-7 42 -15 52 -8 11 -15 38 -15 60 -1 23 -7 52 -15 66 -8 14 -14 36 -15 50 0
14 -7 38 -15 54 -8 15 -15 37 -15 48 0 11 -6 32 -13 46 -8 15 -21 42 -30 60
-9 19 -17 41 -17 51 0 9 -7 26 -15 37 -8 10 -15 33 -15 50 0 17 -7 37 -15 44
-8 7 -15 20 -15 29 0 9 -5 22 -12 29 -6 6 -15 33 -19 59 -4 27 -11 62 -17 78
-15 45 -33 115 -39 155 -2 19 -11 49 -18 65 -8 17 -16 37 -20 45 -13 33 -33
59 -85 114 -30 32 -55 66 -55 76 0 20 -45 60 -68 60 -8 0 -20 7 -27 15 -7 8
-21 15 -31 15 -10 0 -21 5 -24 10 -9 15 -36 12 -57 -7 -24 -21 -68 -4 -68 28
0 11 -9 32 -19 46 -26 32 -15 67 23 71 15 2 30 11 32 20 24 74 58 135 86 151
33 19 38 64 12 112 -14 28 -14 32 0 48 29 32 13 83 -44 141 -17 17 -30 36 -30
41 0 21 -58 84 -92 100 -77 37 -170 53 -228 39z m-486 -2152 c9 -17 21 -23 46
-23 33 -1 35 -3 38 -37 2 -20 -4 -51 -13 -68 -13 -26 -16 -62 -16 -190 1 -87
-3 -161 -8 -164 -11 -7 -21 17 -21 54 0 29 -25 88 -65 155 -33 55 -35 189 -5
261 21 49 25 50 44 12z m1577 -581 c-1 -12 -15 -9 -19 4 -3 6 1 10 8 8 6 -3
11 -8 11 -12z"/>
</g>
</svg>
